PathFileType	4	(X/Y/Z)	Patient4_TMGait_0pt4_02_left_13.trc.trc
DataRate	CameraRate	NumFrames	NumMarkers	Units	OrigDataRate	OrigDataStartFrame	OrigNumFrames
74.866310160428	74.866310160428	4	33	mm	74.866310160428	106	       141
Frame#	Time	Sacral			L.Shoulder			Chest			R.Shoulder			Neck			R.ASIS			L.ASIS			R.Thigh.Superior			R.Thigh.Lateral			R.Thigh.Inferior			R.Patella			L.Thigh.Superior			L.Thigh.Lateral			L.Thigh.Inferior			L.Patella			L.Shank.Superior			L.Shank.Lateral			L.Shank.Inferior			R.Shank.Superior			R.Shank.Lateral			R.Shank.Inferior			R.Heel			R.Midfoot.Superior			R.Midfoot.Lateral			R.Toe			L.Heel			L.Midfoot.Lateral			L.Midfoot.Superior			L.Toe			L.Elbow			L.Wrist			R.Elbow			R.Wrist			
		X1	Y1	Z1	X2	Y2	Z2	X3	Y3	Z3	X4	Y4	Z4	X5	Y5	Z5	X6	Y6	Z6	X7	Y7	Z7	X8	Y8	Z8	X9	Y9	Z9	X10	Y10	Z10	X11	Y11	Z11	X12	Y12	Z12	X13	Y13	Z13	X14	Y14	Z14	X15	Y15	Z15	X16	Y16	Z16	X17	Y17	Z17	X18	Y18	Z18	X19	Y19	Z19	X20	Y20	Z20	X21	Y21	Z21	X22	Y22	Z22	X23	Y23	Z23	X24	Y24	Z24	X25	Y25	Z25	X26	Y26	Z26	X27	Y27	Z27	X28	Y28	Z28	X29	Y29	Z29	X30	Y30	Z30	X31	Y31	Z31	X32	Y32	Z32	X33	Y33	Z33	

106	18.742500000000	845.700810769906	1008.339921461701	537.657310351985	996.788227010280	1433.114021031493	330.734215400732	1119.080971605729	1372.785795422444	480.749906152463	1055.674775866971	1449.910758249522	661.209886225662	994.597396043378	1498.929992026724	486.298697094309	1083.616156491519	944.952743415146	630.957936186082	1043.592807681634	972.288935411215	359.712707385461	1109.191040812831	739.081054146781	598.570366902738	1024.919436977842	633.544784609284	664.127436742329	1093.634146835821	579.035113398293	579.771970180409	1088.575339860244	493.479636180819	585.354102311605	1132.145843904613	795.114139872790	375.772443322138	1086.182986870542	666.578520773822	293.822179457950	1198.323413214926	611.185062940580	341.592641888647	1219.667067764626	530.554405537780	331.016836433639	1173.796911938799	455.469695248682	322.997141397902	1054.058106696860	370.893179825422	275.078948487018	1090.102477710539	242.551171746613	322.279804304398	1059.752165642518	403.656879015463	592.199197985880	989.235337728270	300.646468777750	657.030293406878	1025.751212256473	206.153936554502	588.756147189829	888.507788451010	42.539025592212	563.002118088170	1061.375342405337	96.710562630034	590.008006862902	975.623446458931	37.093066451693	633.509051698650	1183.140498176012	43.839625288566	609.868672124871	937.656568970822	114.224578081893	360.881626374214	1003.331436584124	94.796705095984	277.008942320359	1099.029850112383	138.867944809679	296.729758799996	1209.414697913167	63.289216813542	261.131880003865	941.546693912141	1078.284406281609	234.128039015920	1019.235669257319	828.498861869024	214.759167062923	1162.798424263683	1142.452613512465	820.684477104657	1406.156848038545	1089.431613358100	757.552173821567	
107	18.755857142857	844.924542818669	1008.982323572925	538.892549048230	995.235828681090	1433.614916245643	332.031922822243	1118.833180766120	1372.736254846385	480.724844874377	1057.304543489648	1449.718893955145	661.896091962529	994.667512827353	1499.052588093332	487.621880768680	1083.063571097697	944.718461658959	630.569077649939	1041.756674130814	972.626033749778	359.501270009378	1106.391318887822	738.535916383126	597.812828476706	1021.838432793279	633.557371840543	664.243454641700	1089.345287978818	578.586188353950	579.484259399130	1083.751898144175	493.311717038873	585.273827727708	1129.378311315223	795.115850865684	375.674747670772	1083.727777281251	666.915753726252	293.488217126146	1195.086419232820	611.092136832420	342.386753290857	1217.586542313952	532.550921836380	331.689821285325	1175.670219640401	457.275175171227	322.949829508722	1062.158293990141	365.510718309770	273.826036653018	1106.490339503336	239.334359380081	320.527875976674	1054.772009057999	403.574907360926	592.220340327930	984.240666100823	300.626800562272	657.168615014309	1020.503085416406	206.094110641637	588.797121644819	883.114909054628	42.562692231012	563.058689584797	1056.003064682618	96.664362528388	590.051389495952	970.246033048941	37.076458642293	633.548696982819	1177.757191120856	43.739467801227	609.912556172470	963.072389366156	100.535018359364	357.912202530502	1030.297908039504	86.356518809968	274.129204739376	1122.678778979068	136.624842984910	294.469696497452	1238.100872402411	69.125737607681	258.846120301028	933.160948735366	1079.758329354303	236.469117295483	1000.947484309133	827.342870377105	217.318323667886	1172.331245201492	1145.580300447702	820.242478469877	1416.844694776373	1103.008021311827	754.488259946369	
108	18.769214285714	844.149838189848	1009.548374223294	539.853597175576	993.853700286378	1434.065720657767	333.129671679220	1118.640761838695	1372.584776377335	480.564940364128	1058.883458406804	1449.405042585070	662.398385202428	994.789392114040	1499.094141559803	488.732799289889	1082.505114996776	944.449988714882	630.047287530489	1040.031774153780	972.771920523144	359.128051256980	1103.663666649356	737.981433160475	597.067353734968	1018.797353759954	633.545213701108	664.312736802552	1085.131565626129	578.132239440814	579.195692733727	1078.997105028260	493.125149982929	585.211463846955	1126.366472226558	794.562484215429	375.607229808240	1081.008492828430	666.948755508662	292.987470607309	1191.206877752428	610.298351516534	343.465096816384	1214.787984719653	534.000272593805	332.631866894287	1176.866638139376	458.823878180172	323.068307573817	1070.116652565570	360.205218016479	272.463502807077	1122.451922020604	236.698047739142	318.922531788571	1049.856502613269	403.485978906236	592.249469286627	979.270788493732	300.607500465239	657.292311662721	1015.284789410364	206.030300889398	588.846733355060	877.714972431872	42.589452236474	563.113254307222	1050.637169452361	96.623524809249	590.105315362146	964.867846776393	37.054957574704	633.589028081369	1172.375536875700	43.640458394215	609.954166294176	988.510612465459	88.134661249728	354.804285155719	1057.266334566264	78.977876792900	271.399149294928	1145.960521214269	135.212811592673	292.541167821132	1265.985598977682	75.788805018892	257.505034436377	924.965035111678	1081.355327198053	238.643837843120	983.229135074206	826.791998879548	219.957265967489	1181.523510804077	1148.600348138812	819.362483545157	1426.784381233210	1116.159681527841	751.384987571827	
109	18.782571428571	843.386253442868	1010.027016777154	540.534069795917	992.645860129783	1434.473345972045	334.012687674655	1118.489928004765	1372.343296277271	480.276225742145	1060.369857647308	1448.980712174494	662.714068365790	994.945396717935	1499.061810707733	489.628184270927	1081.948138421177	944.158394806227	629.408336104112	1038.432293868631	972.737685015155	358.604955979065	1101.047407524705	737.420426002734	596.365975522104	1015.806329072750	633.509848517348	664.321568669229	1081.024937055867	577.673911812513	578.906687436906	1074.336730627797	492.916952694283	585.150491991737	1123.184492758241	793.540131540169	375.581941960285	1078.098183944477	666.693143034461	292.347825147771	1186.879557983096	608.948483739902	344.718949872734	1211.463631132312	534.969879458501	333.758994205898	1177.475025331186	460.145320458731	323.313299640967	1077.773741548243	355.182837272039	271.093053856111	1137.631447611744	234.755597621581	317.560445159381	1045.019251261788	403.381659782495	592.270579075515	974.338917364637	300.592294860293	657.391058040506	1010.105275416529	205.962874028467	588.900600531763	872.310570240369	42.618022403400	563.168295998456	1045.277878713797	96.590283570232	590.169531377937	959.488091371186	37.029875859673	633.632125525280	1166.994728782354	43.548616236476	609.994518525446	1013.323051842228	77.374086874148	351.827631057135	1083.531883448888	72.859610279659	269.027448494193	1168.311607157331	134.683991504376	291.048504876514	1292.403475419772	83.092236284678	257.119050488771	917.024632006417	1083.068740329116	240.638539584579	966.190611988385	826.790632510245	222.668233492856	1190.319379137769	1151.495255360576	818.058076931369	1435.976935162508	1128.821836886221	748.261329876592	
